<svg width="96" height="96" viewBox="0 0 96 96" fill="none" xmlns="http://www.w3.org/2000/svg">
<g clip-path="url(#clip0_913_11038)">
<path d="M39.6469 57.034L40.0005 57.3866L40.3536 57.0336L63.8735 33.5136C65.2447 32.1424 67.4689 32.1464 68.8352 33.5223C70.1946 34.8914 70.1907 37.1022 68.8264 38.4665L43.182 64.1109C41.4246 65.8683 38.5754 65.8683 36.818 64.1109L23.1755 50.4684C21.8123 49.1051 21.8123 46.8949 23.1755 45.5316C24.5374 44.1697 26.7451 44.1681 28.1089 45.5281L39.6469 57.034ZM8.5 48C8.5 26.1961 26.1961 8.5 48 8.5C69.8039 8.5 87.5 26.1961 87.5 48C87.5 69.8039 69.8039 87.5 48 87.5C26.1961 87.5 8.5 69.8039 8.5 48ZM15.5 48C15.5 65.9561 30.0439 80.5 48 80.5C65.9561 80.5 80.5 65.9561 80.5 48C80.5 30.0439 65.9561 15.5 48 15.5C30.0439 15.5 15.5 30.0439 15.5 48Z" fill="#0061FF" stroke="#212121"/>
</g>
<defs>
<clipPath id="clip0_913_11038">
<rect width="96" height="96" fill="white"/>
</clipPath>
</defs>
</svg>
