<svg width="24" height="25" viewBox="0 0 24 25" fill="none" xmlns="http://www.w3.org/2000/svg">
<mask id="path-2-inside-1_632_5342" fill="white">
<path fill-rule="evenodd" clip-rule="evenodd" d="M6.34339 5.05457C5.75761 4.46879 4.80786 4.46879 4.22207 5.05457C3.63629 5.64036 3.63629 6.59011 4.22207 7.17589L9.87894 12.8328L4.22181 18.4899C3.63602 19.0757 3.63602 20.0254 4.22181 20.6112C4.8076 21.197 5.75734 21.197 6.34313 20.6112L12.0003 14.9541L17.6571 20.6109C18.2429 21.1967 19.1926 21.1967 19.7784 20.6109C20.3642 20.0251 20.3642 19.0754 19.7784 18.4896L14.1216 12.8328L19.7782 7.17619C20.3639 6.5904 20.3639 5.64065 19.7782 5.05487C19.1924 4.46908 18.2426 4.46908 17.6568 5.05487L12.0003 10.7114L6.34339 5.05457Z"/>
</mask>
<path d="M4.22207 5.05457L4.92918 5.76168L4.22207 5.05457ZM6.34339 5.05457L5.63629 5.76168L6.34339 5.05457ZM4.22207 7.17589L4.92918 6.46879L4.22207 7.17589ZM9.87894 12.8328L10.586 13.5399L11.2932 12.8328L10.586 12.1257L9.87894 12.8328ZM4.22181 18.4899L3.5147 17.7828H3.5147L4.22181 18.4899ZM4.22181 20.6112L3.5147 21.3183H3.5147L4.22181 20.6112ZM6.34313 20.6112L7.05024 21.3183H7.05024L6.34313 20.6112ZM12.0003 14.9541L12.7074 14.247L12.0003 13.5399L11.2932 14.247L12.0003 14.9541ZM17.6571 20.6109L16.95 21.318L17.6571 20.6109ZM19.7784 18.4896L19.0713 19.1967V19.1967L19.7784 18.4896ZM14.1216 12.8328L13.4145 12.1257L12.7074 12.8328L13.4145 13.5399L14.1216 12.8328ZM19.7782 7.17619L20.4853 7.88329V7.88329L19.7782 7.17619ZM19.7782 5.05487L20.4853 4.34776V4.34776L19.7782 5.05487ZM17.6568 5.05487L18.3639 5.76197L18.3639 5.76197L17.6568 5.05487ZM12.0003 10.7114L11.2932 11.4186L12.0003 12.1257L12.7074 11.4186L12.0003 10.7114ZM4.92918 5.76168C5.12444 5.56642 5.44102 5.56642 5.63629 5.76168L7.0505 4.34747C6.07419 3.37116 4.49128 3.37116 3.51497 4.34747L4.92918 5.76168ZM4.92918 6.46879C4.73392 6.27353 4.73392 5.95694 4.92918 5.76168L3.51497 4.34747C2.53865 5.32378 2.53865 6.90669 3.51497 7.883L4.92918 6.46879ZM10.586 12.1257L4.92918 6.46879L3.51497 7.883L9.17183 13.5399L10.586 12.1257ZM4.92892 19.197L10.586 13.5399L9.17183 12.1257L3.5147 17.7828L4.92892 19.197ZM4.92892 19.9041C4.73366 19.7088 4.73366 19.3923 4.92892 19.197L3.5147 17.7828C2.53839 18.7591 2.53839 20.342 3.5147 21.3183L4.92892 19.9041ZM5.63602 19.9041C5.44076 20.0994 5.12418 20.0994 4.92892 19.9041L3.5147 21.3183C4.49101 22.2946 6.07393 22.2946 7.05024 21.3183L5.63602 19.9041ZM11.2932 14.247L5.63602 19.9041L7.05024 21.3183L12.7074 15.6612L11.2932 14.247ZM18.3642 19.9038L12.7074 14.247L11.2932 15.6612L16.95 21.318L18.3642 19.9038ZM19.0713 19.9038C18.8761 20.0991 18.5595 20.0991 18.3642 19.9038L16.95 21.318C17.9263 22.2943 19.5092 22.2943 20.4855 21.318L19.0713 19.9038ZM19.0713 19.1967C19.2666 19.392 19.2666 19.7086 19.0713 19.9038L20.4855 21.318C21.4618 20.3417 21.4618 18.7588 20.4855 17.7825L19.0713 19.1967ZM13.4145 13.5399L19.0713 19.1967L20.4855 17.7825L14.8287 12.1257L13.4145 13.5399ZM19.0711 6.46908L13.4145 12.1257L14.8287 13.5399L20.4853 7.88329L19.0711 6.46908ZM19.0711 5.76197C19.2663 5.95723 19.2663 6.27382 19.0711 6.46908L20.4853 7.88329C21.4616 6.90698 21.4616 5.32407 20.4853 4.34776L19.0711 5.76197ZM18.3639 5.76197C18.5592 5.56671 18.8758 5.56671 19.0711 5.76197L20.4853 4.34776C19.509 3.37145 17.926 3.37145 16.9497 4.34776L18.3639 5.76197ZM12.7074 11.4186L18.3639 5.76197L16.9497 4.34776L11.2932 10.0043L12.7074 11.4186ZM5.63629 5.76168L11.2932 11.4186L12.7074 10.0043L7.0505 4.34747L5.63629 5.76168Z" fill="#0061FF" mask="url(#path-2-inside-1_632_5342)"/>
</svg>
