<svg width="53" height="25" viewBox="0 0 53 25" fill="none" xmlns="http://www.w3.org/2000/svg">
<g clip-path="url(#clip0_282_2014)">
<path d="M6.38363 5.17625V19.8238C6.38363 20.3223 6.72465 20.7578 7.2051 20.8718L13.3166 22.3418V24.358C13.3166 24.7732 12.9336 25.0777 12.5354 24.9824L0.819792 22.17C0.33934 22.0526 0 21.6204 0 21.1219V3.87977C0 3.38125 0.33766 2.94909 0.819792 2.8317L12.5337 0.0175526C12.9319 -0.0777268 13.3149 0.226827 13.3149 0.641973V2.65815L7.20342 4.12818C6.72297 4.24387 6.38195 4.67773 6.38195 5.17625H6.38363Z" fill="#00BDFF"/>
<path d="M13.3167 2.71777V22.283L7.21257 20.8219C6.7327 20.7069 6.39209 20.2757 6.39209 19.7803V5.2205C6.39209 4.72503 6.7327 4.29212 7.21257 4.17882L13.3167 2.71777Z" fill="#0061FF"/>
<path d="M19.7084 1.99512V23.0026C19.7084 23.4154 19.3264 23.7183 18.926 23.6236L13.3164 22.2869V2.71251L18.926 1.37586C19.3281 1.28111 19.7084 1.58397 19.7084 1.99512Z" fill="#80CFFF"/>
<path d="M29.7181 18.1161H36.486V13.8584H27.6987V15.5974H34.4667V16.3771H27.6987V20.6519H36.4877V18.8941H29.7181V18.1161Z" fill="#0061FF"/>
<path d="M29.703 12.8186C30.2657 12.5147 30.7289 12.0994 31.0808 11.5844H34.4357V12.871H36.4875V4.34766H34.4357V6.37549H30.5977C30.2441 6.02598 29.8308 5.73388 29.3643 5.50594C28.863 5.28813 28.3202 5.17669 27.7475 5.17669C27.1747 5.17669 26.6718 5.278 26.1654 5.48905C25.6791 5.7018 25.2624 5.98715 24.8922 6.36367C24.5187 6.725 24.2282 7.16231 24.0273 7.66378C23.8132 8.1737 23.7036 8.70894 23.7036 9.25431C23.7036 9.79968 23.8132 10.3552 24.0257 10.8246C24.2182 11.3244 24.5021 11.7498 24.8889 12.1247C25.2707 12.513 25.689 12.7933 26.1621 12.9841C26.6535 13.207 27.1714 13.315 27.7458 13.315C28.4447 13.315 29.0854 13.153 29.703 12.822V12.8186ZM34.4357 8.26825V9.65447H31.7714C31.773 9.64097 31.7764 9.62746 31.778 9.61226L31.7896 9.25093C31.7896 8.9639 31.7448 8.63465 31.6568 8.26656H34.4341L34.4357 8.26825ZM26.2883 10.7368C26.0841 10.5291 25.9447 10.3147 25.8484 10.0546C25.7388 9.81657 25.689 9.56161 25.689 9.25093C25.689 8.94026 25.7438 8.67686 25.8517 8.42359C25.953 8.16863 26.099 7.94069 26.2883 7.74821C26.4875 7.54559 26.6983 7.3987 26.9506 7.28557C27.2295 7.17244 27.4818 7.1201 27.7475 7.1201C27.9998 7.1201 28.2737 7.17582 28.5542 7.28219C28.8016 7.3987 29.0141 7.55066 29.2066 7.74652C29.3892 7.93056 29.5386 8.15513 29.6598 8.41852C29.7694 8.714 29.8242 8.99429 29.8242 9.24924C29.8242 9.5194 29.7727 9.77604 29.6631 10.0546C29.5503 10.3163 29.4058 10.5325 29.2033 10.7385C28.9958 10.9664 28.7866 11.1217 28.5576 11.2163C28.3135 11.3244 28.0413 11.3801 27.7475 11.3801C27.4536 11.3801 27.1913 11.3277 26.9473 11.2129C26.7116 11.1234 26.5024 10.9715 26.2866 10.7351L26.2883 10.7368Z" fill="#0061FF"/>
<path d="M50.5493 9.7272V4.34766H48.4722V17.9346H50.5493V11.7875H52.9998V9.7272H50.5493Z" fill="#0061FF"/>
<path d="M40.9224 8.48823H45.7613V6.52148H38.8843V17.391H46.8742V15.4622H40.9224V8.48823Z" fill="#0061FF"/>
</g>
<defs>
<clipPath id="clip0_282_2014">
<rect width="53" height="25" fill="white"/>
</clipPath>
</defs>
</svg>
